<svg width="1306" height="1306" xmlns="http://www.w3.org/2000/svg" xmlns:xlink="http://www.w3.org/1999/xlink" xml:space="preserve" overflow="hidden"><g transform="translate(-1521 -476)"><g><path d="M2048.81 1219.4C2032.66 1219.4 2019.57 1232.07 2019.57 1247.69 2019.57 1263.32 2032.66 1275.98 2048.81 1275.98 2064.96 1275.98 2078.05 1263.32 2078.04 1247.69 2078.04 1232.07 2064.96 1219.4 2048.81 1219.4ZM2335.3 1095.89 2338.29 1102.46 2384.27 1198.59 2356.53 1211.86 2321.39 1138.38 2283.39 1155.65 2319.2 1230.52 2291.47 1243.78 2255.4 1168.38 2104.16 1237.12 2106.33 1247.69C2106.33 1278.94 2080.58 1304.27 2048.81 1304.27 2017.04 1304.27 1991.28 1278.94 1991.28 1247.69 1991.28 1216.45 2017.04 1191.12 2048.81 1191.12 2064.69 1191.12 2079.07 1197.45 2089.48 1207.69L2090.36 1208.97 2089.71 1207.52ZM2351.08 879.717C2353.75 879.433 2356.36 879.643 2358.88 880.392 2379.04 886.381 2385.49 924.525 2373.29 965.588 2361.09 1006.65 2334.86 1035.09 2314.7 1029.1 2294.55 1023.11 2288.09 984.964 2300.29 943.9 2310.97 907.969 2332.39 881.709 2351.08 879.717ZM2176.21 879.717C2178.88 879.432 2181.49 879.643 2184.01 880.392 2204.17 886.381 2210.62 924.524 2198.42 965.588 2186.22 1006.65 2159.99 1035.08 2139.83 1029.1 2119.67 1023.11 2113.22 984.963 2125.42 943.9 2136.1 907.969 2157.52 881.708 2176.21 879.717ZM2254.36 658.781C2121.47 656.198 1878.06 711.314 1830.91 862.883 1780.61 1024.56 1853 1619.32 1977.57 1630.1 2039.86 1635.49 2177.83 1500.52 2306.34 1343.86L2348.67 1289.55 2453.26 1242 2489.33 1317.41 2517.06 1304.14 2481.26 1229.28 2519.25 1212.01 2554.39 1285.48 2582.13 1272.22 2536.14 1176.06 2533.16 1169.51 2392.32 1233.53 2399.62 1224.16C2488.46 1104.11 2560.01 988.548 2578.34 927.553 2627.23 764.899 2403.94 670.834 2279.37 660.056 2271.58 659.382 2263.22 658.953 2254.36 658.781ZM1741.12 481.022 2607.25 481.023C2726.85 481.023 2823.79 577.971 2823.79 697.562L2823.79 1563.7C2823.79 1683.29 2726.85 1780.24 2607.25 1780.24L1741.12 1780.24C1621.53 1780.23 1524.58 1683.29 1524.58 1563.7L1524.58 697.562C1524.58 577.971 1621.53 481.023 1741.12 481.022Z" fill="#101828" fill-rule="evenodd" fill-opacity="1"/></g></g></svg>